<svg width="1440" height="442" viewBox="0 0 1440 442" fill="none" xmlns="http://www.w3.org/2000/svg">
<g opacity="0.06">
<rect x="1462.92" y="285.921" width="149.303" height="149.303" transform="rotate(180 1462.92 285.921)" fill="white" stroke="black" stroke-width="4.59394"/>
<rect x="1462.92" y="136.618" width="149.303" height="149.303" transform="rotate(180 1462.92 136.618)" fill="white" stroke="black" stroke-width="4.59394"/>
<rect x="1313.62" y="285.921" width="149.303" height="149.303" transform="rotate(180 1313.62 285.921)" fill="white" stroke="black" stroke-width="4.59394"/>
<rect x="1313.62" y="136.618" width="149.303" height="149.303" transform="rotate(180 1313.62 136.618)" fill="white" stroke="black" stroke-width="4.59394"/>
<rect x="1164.31" y="285.921" width="149.303" height="149.303" transform="rotate(180 1164.31 285.921)" fill="white" stroke="black" stroke-width="4.59394"/>
<rect x="1164.31" y="136.618" width="149.303" height="149.303" transform="rotate(180 1164.31 136.618)" fill="white" stroke="black" stroke-width="4.59394"/>
<rect x="1015.01" y="285.921" width="149.303" height="149.303" transform="rotate(180 1015.01 285.921)" fill="white" stroke="black" stroke-width="4.59394"/>
<rect x="1015.01" y="136.618" width="149.303" height="149.303" transform="rotate(180 1015.01 136.618)" fill="white" stroke="black" stroke-width="4.59394"/>
<rect x="865.708" y="285.921" width="149.303" height="149.303" transform="rotate(180 865.708 285.921)" fill="white" stroke="black" stroke-width="4.59394"/>
<rect x="865.708" y="136.618" width="149.303" height="149.303" transform="rotate(180 865.708 136.618)" fill="white" stroke="black" stroke-width="4.59394"/>
<rect x="1329.7" y="285.758" width="22.9697" height="22.9697" transform="rotate(135 1329.7 285.758)" fill="white" stroke="black" stroke-width="4.59394"/>
<rect x="1329.7" y="136.455" width="22.9697" height="22.9697" transform="rotate(135 1329.7 136.455)" fill="black" stroke="black" stroke-width="4.59394"/>
<rect x="1329.7" y="-12.8484" width="22.9697" height="22.9697" transform="rotate(135 1329.7 -12.8484)" fill="black" stroke="black" stroke-width="4.59394"/>
<rect x="1180.39" y="285.758" width="22.9697" height="22.9697" transform="rotate(135 1180.39 285.758)" fill="white" stroke="black" stroke-width="4.59394"/>
<rect x="1180.39" y="136.455" width="22.9697" height="22.9697" transform="rotate(135 1180.39 136.455)" fill="black" stroke="black" stroke-width="4.59394"/>
<rect x="1180.39" y="-12.8484" width="22.9697" height="22.9697" transform="rotate(135 1180.39 -12.8484)" fill="white" stroke="black" stroke-width="4.59394"/>
<rect x="1031.09" y="285.758" width="22.9697" height="22.9697" transform="rotate(135 1031.09 285.758)" fill="white" stroke="black" stroke-width="4.59394"/>
<rect x="1031.09" y="136.455" width="22.9697" height="22.9697" transform="rotate(135 1031.09 136.455)" fill="black" stroke="black" stroke-width="4.59394"/>
<rect x="1031.09" y="-12.8484" width="22.9697" height="22.9697" transform="rotate(135 1031.09 -12.8484)" fill="white" stroke="black" stroke-width="4.59394"/>
<rect x="881.787" y="285.758" width="22.9697" height="22.9697" transform="rotate(135 881.787 285.758)" fill="white" stroke="black" stroke-width="4.59394"/>
<rect x="881.787" y="136.455" width="22.9697" height="22.9697" transform="rotate(135 881.787 136.455)" fill="black" stroke="black" stroke-width="4.59394"/>
<rect x="881.787" y="-12.8484" width="22.9697" height="22.9697" transform="rotate(135 881.787 -12.8484)" fill="black" stroke="black" stroke-width="4.59394"/>
<rect x="732.484" y="285.758" width="22.9697" height="22.9697" transform="rotate(135 732.484 285.758)" fill="white" stroke="black" stroke-width="4.59394"/>
<rect x="732.484" y="136.455" width="22.9697" height="22.9697" transform="rotate(135 732.484 136.455)" fill="white" stroke="black" stroke-width="4.59394"/>
<rect x="732.484" y="-12.8484" width="22.9697" height="22.9697" transform="rotate(135 732.484 -12.8484)" fill="white" stroke="black" stroke-width="4.59394"/>
</g>
<g opacity="0.06">
<rect x="715.921" y="285.921" width="149.303" height="149.303" transform="rotate(180 715.921 285.921)" fill="white" stroke="black" stroke-width="4.59394"/>
<rect x="715.921" y="136.618" width="149.303" height="149.303" transform="rotate(180 715.921 136.618)" fill="white" stroke="black" stroke-width="4.59394"/>
<rect x="566.618" y="285.921" width="149.303" height="149.303" transform="rotate(180 566.618 285.921)" fill="white" stroke="black" stroke-width="4.59394"/>
<rect x="566.618" y="136.618" width="149.303" height="149.303" transform="rotate(180 566.618 136.618)" fill="white" stroke="black" stroke-width="4.59394"/>
<rect x="417.315" y="285.921" width="149.303" height="149.303" transform="rotate(180 417.315 285.921)" fill="white" stroke="black" stroke-width="4.59394"/>
<rect x="417.315" y="136.618" width="149.303" height="149.303" transform="rotate(180 417.315 136.618)" fill="white" stroke="black" stroke-width="4.59394"/>
<rect x="268.012" y="285.921" width="149.303" height="149.303" transform="rotate(180 268.012 285.921)" fill="white" stroke="black" stroke-width="4.59394"/>
<rect x="268.012" y="136.618" width="149.303" height="149.303" transform="rotate(180 268.012 136.618)" fill="white" stroke="black" stroke-width="4.59394"/>
<rect x="118.708" y="285.921" width="149.303" height="149.303" transform="rotate(180 118.708 285.921)" fill="white" stroke="black" stroke-width="4.59394"/>
<rect x="118.708" y="136.618" width="149.303" height="149.303" transform="rotate(180 118.708 136.618)" fill="white" stroke="black" stroke-width="4.59394"/>
<rect x="732" y="285.758" width="22.9697" height="22.9697" transform="rotate(135 732 285.758)" fill="white" stroke="black" stroke-width="4.59394"/>
<rect x="732" y="136.455" width="22.9697" height="22.9697" transform="rotate(135 732 136.455)" fill="white" stroke="black" stroke-width="4.59394"/>
<rect x="732" y="-12.8484" width="22.9697" height="22.9697" transform="rotate(135 732 -12.8484)" fill="white" stroke="black" stroke-width="4.59394"/>
<rect x="582.697" y="285.758" width="22.9697" height="22.9697" transform="rotate(135 582.697 285.758)" fill="white" stroke="black" stroke-width="4.59394"/>
<rect x="582.697" y="136.455" width="22.9697" height="22.9697" transform="rotate(135 582.697 136.455)" fill="black" stroke="black" stroke-width="4.59394"/>
<rect x="582.697" y="-12.8484" width="22.9697" height="22.9697" transform="rotate(135 582.697 -12.8484)" fill="black" stroke="black" stroke-width="4.59394"/>
<rect x="433.394" y="285.758" width="22.9697" height="22.9697" transform="rotate(135 433.394 285.758)" fill="white" stroke="black" stroke-width="4.59394"/>
<rect x="433.394" y="136.455" width="22.9697" height="22.9697" transform="rotate(135 433.394 136.455)" fill="black" stroke="black" stroke-width="4.59394"/>
<rect x="433.394" y="-12.8484" width="22.9697" height="22.9697" transform="rotate(135 433.394 -12.8484)" fill="white" stroke="black" stroke-width="4.59394"/>
<rect x="284.091" y="285.758" width="22.9697" height="22.9697" transform="rotate(135 284.091 285.758)" fill="white" stroke="black" stroke-width="4.59394"/>
<rect x="284.09" y="136.455" width="22.9697" height="22.9697" transform="rotate(135 284.09 136.455)" fill="black" stroke="black" stroke-width="4.59394"/>
<rect x="284.09" y="-12.8484" width="22.9697" height="22.9697" transform="rotate(135 284.09 -12.8484)" fill="white" stroke="black" stroke-width="4.59394"/>
<rect x="134.787" y="285.758" width="22.9697" height="22.9697" transform="rotate(135 134.787 285.758)" fill="white" stroke="black" stroke-width="4.59394"/>
<rect x="134.787" y="136.455" width="22.9697" height="22.9697" transform="rotate(135 134.787 136.455)" fill="black" stroke="black" stroke-width="4.59394"/>
<rect x="134.787" y="-12.8484" width="22.9697" height="22.9697" transform="rotate(135 134.787 -12.8484)" fill="black" stroke="black" stroke-width="4.59394"/>
</g>
<rect x="1464" y="442" width="1479" height="329" transform="rotate(180 1464 442)" fill="url(#paint0_linear_298_1048)" fill-opacity="0.9"/>
<defs>
<linearGradient id="paint0_linear_298_1048" x1="2203.5" y1="442" x2="2203.5" y2="771" gradientUnits="userSpaceOnUse">
<stop offset="0.354167" stop-color="white"/>
<stop offset="1" stop-color="white" stop-opacity="0"/>
</linearGradient>
</defs>
</svg>
