<?xml version="1.0" encoding="utf-8"?>
<svg viewBox="0 0 16 16" xmlns="http://www.w3.org/2000/svg">
  <ellipse style="fill: rgb(0, 0, 0); stroke: none; visibility: hidden;" cx="8" cy="8" rx="8" ry="8"/>
  <path d="M 7.969 1.122 C 7.969 1.122 10.141 1.171 10.671 2.133 C 10.671 2.133 10.709 2.334 10.413 2.508 C 10.413 2.508 12.112 3.689 12.012 4.554 L 10.248 8.785 L 10.765 9.538 C 10.765 9.538 11.714 9.97 11.753 10.831 C 11.753 10.831 11.743 11.327 11.471 11.63 C 11.471 11.63 11.709 12.15 11.589 12.922 C 11.589 12.922 11.422 14.474 7.969 14.569" style="fill: none; stroke-width: 0.5px; stroke: rgb(0, 0, 0);"/>
  <path d="M 7.969 1.122 C 7.969 1.122 5.796 1.171 5.265 2.133 C 5.265 2.133 5.227 2.334 5.524 2.508 C 5.524 2.508 3.825 3.689 3.925 4.554 L 5.688 8.785 L 5.171 9.538 C 5.171 9.538 4.222 9.97 4.184 10.831 C 4.184 10.831 4.193 11.327 4.467 11.63 C 4.467 11.63 4.23 12.15 4.348 12.922 C 4.348 12.922 4.514 14.474 7.969 14.569" style="fill: none; stroke-width: 0.5px; stroke: rgb(0, 0, 0);"/>
  <path d="M 5.524 2.508 C 5.524 2.508 7.28 2.947 10.413 2.508" style="fill: none; stroke-width: 0.5px; stroke: rgb(0, 0, 0);"/>
  <path d="M 4.357 11.598 C 4.357 11.598 7.82 13.659 11.638 11.598" style="fill: none; stroke-width: 0.5px; stroke: rgb(0, 0, 0);"/>
  <path d="M 5.171 9.538 C 5.171 9.538 7.738 10.752 10.765 9.538" style="fill: none; stroke-width: 0.5px; stroke: rgb(0, 0, 0);"/>
  <path d="M 5.688 8.785 C 5.688 8.785 7.735 9.519 10.248 8.785" style="fill: none; stroke-width: 0.5px; stroke: rgb(0, 0, 0);"/>
</svg>